<?xml version="1.0" encoding="utf-8"?>
<!-- Generator: Adobe Illustrator 19.1.0, SVG Export Plug-In . SVG Version: 6.00 Build 0)  -->
<svg version="1.1" id="レイヤー_1" xmlns="http://www.w3.org/2000/svg" xmlns:xlink="http://www.w3.org/1999/xlink" x="0px"
	 y="0px" viewBox="0 0 159.5 33.5" style="enable-background:new 0 0 159.5 33.5;" xml:space="preserve">
<style type="text/css">
	.st0{fill:#009360;}
	.st1{fill:#FFFFFF;}
	.st2{fill:#E6002D;}
</style>
<g>
	<g>
		<polygon class="st0" points="9.6,33.5 9.6,7.4 24,0 38.4,7.4 38.4,33.5 		"/>
		<rect x="16.3" y="14.4" class="st1" width="12.6" height="9.3"/>
		<rect y="14.4" class="st2" width="19.2" height="9.3"/>
	</g>
	<g>
		<polygon class="st2" points="55.6,5 48.3,3.4 48.3,0.1 45.6,0.1 45.6,10 48.3,10 48.3,5.5 55.6,7.1 		"/>
		<rect x="59.9" y="0.4" class="st2" width="9.3" height="1.9"/>
		<path class="st2" d="M59,4.9V3h11.1v2c0,1.1-0.3,2.6-1.7,3.6c-1.1,0.8-4,1-5.3,1.1c-1.1,0-3.3,0-3.3,0v-2h3.3
			c1.4-0.1,2.8-0.1,3.8-0.7c0.9-0.5,0.7-2.2,0.7-2.2H59z"/>
		<rect x="74" y="0.5" class="st2" width="5.5" height="2"/>
		<path class="st2" d="M85.2,2.1h-2.6c0,0,0,1.3-0.1,1.9c-0.1,0.6,0,1.4-0.6,2.1c-0.5,0.7-1.3,0.9-2.5,1.1c-1.1,0.1-2.1,0.2-2.5,0.2
			c-0.4,0-3,0-3,0v2.1h3.2c0,0,2.9-0.1,4.2-0.5c1.4-0.4,2.4-0.8,3.2-2.3c0.6-1.2,0.6-2.9,0.6-2.9V2.1z"/>
		<path class="st2" d="M88.2,6v-2c0,0,1.1,0,1.9-0.4c0.8-0.4,1-1.3,1.1-1.9C91.3,0.7,91.3,0,91.3,0h2.5l0,1.3h6c0,0,0,3,0,3.8
			c0,0.8-0.2,2.3-1.4,3.3c-1.5,1.1-3.6,1.2-3.6,1.2c-1.5,0.1-5.1,0.1-5.1,0.1V7.7c0,0,3.4,0,4.4,0C95,7.6,96,7.6,96.7,6.8
			c0.5-0.6,0.6-1,0.6-1.6c0-0.6,0-1.9,0-1.9h-4c0,0-0.3,1-1.3,1.7C91,5.7,89.1,6.1,88.2,6z"/>
		<path class="st2" d="M105,0.7c0,0,0,2.6,0,3.5c0,0.7,0,1.6-0.1,2c-0.1,0.4-0.1,1-0.9,1.3c-0.8,0.2-1.3,0.3-1.3,0.3v2.1
			c0,0,1.3-0.1,2.1-0.3c0.7-0.2,1.7-0.6,2.1-1.2c0.4-0.6,0.7-1,0.7-2.4l0.1-5.3L105,0.7z"/>
		<path class="st2" d="M108.6,0.4l-0.1,9.2c0,0,2.2,0.1,3.3-0.1c1.1-0.2,2.5-0.6,3-1.4c0.5-0.8,0.7-1.5,0.7-2.4c0-0.8,0-2.3,0-2.3
			l-2.5,0c0,0,0,1.7,0,2.2c0,0.5,0,1.2-0.5,1.6c-0.6,0.5-1.1,0.4-1.4,0.4c-0.3,0-0.3-0.3-0.3-0.3l0.1-7H108.6z"/>
		<rect x="117.5" y="3.9" class="st2" width="12.9" height="2.2"/>
		<path class="st2" d="M138.7,0.4L136,0c0,0-3.3,6.9-3.6,7.5C132,8,131.9,8.7,132.1,9c0.1,0.3,0.9,0.7,1.5,0.7c0.6,0,8.8,0,9.5,0
			c0.7,0,1.3,0,1.7-0.3c0.4-0.3,0.5-0.8,0.4-1.3c-0.2-0.5-2-4.2-2-4.2l-2.6,0.2c0,0,1.1,2.4,1.3,2.9c0.2,0.5,0.3,0.8-0.2,0.8
			c-0.5,0-5.3,0-5.9,0c-0.6,0-0.8,0-0.5-0.7C135.6,6.4,138.7,0.4,138.7,0.4z"/>
		<path class="st2" d="M151.7,2.4c0.2,0,0.2,0.1,0.2,0.3c0,0.2-0.2,1.5-0.3,2.4c-0.1,0.9-0.3,1.3-0.4,1.7c-0.1,0.2-0.3,0.5-0.5,0.6
			c-0.3,0.2-1,0.2-1.1-0.4c-0.1-0.6-0.1-1.5,0-2.4c0.1-0.9,0.2-1.3,0.5-1.6c0.4-0.4,0.6-0.4,0.8-0.5C151.2,2.4,151.7,2.4,151.7,2.4z
			 M156.1,2.4c0.5,0.2,0.8,0.5,0.9,1c0.1,0.6,0.3,1.2,0.1,2.6c-0.2,1.4-0.6,1.3-1,1.4c-0.4,0.1-1.7,0.1-1.7,0.1l0,2
			c0,0,1.5,0,2.1-0.1c0.7-0.1,1.3-0.3,1.8-0.6c0.5-0.3,1-1.2,1.1-1.9c0.1-0.7,0.1-2.2,0.1-3c-0.1-0.7-0.2-1.3-0.7-2.1
			c-0.5-0.8-1.4-1.1-2.1-1.3c-0.7-0.2-2.5-0.2-3.6-0.2c-1.1,0.1-2.8,0.2-3.5,0.5c-0.6,0.2-1.2,0.5-1.7,1c-0.5,0.5-0.8,1.2-0.8,2.1
			c-0.1,0.9-0.1,1.1-0.1,2.1c0,1.1,0.1,1.5,0.4,2.1c0.3,0.6,0.9,1.1,1.8,1.2c0.9,0.2,1.7,0.1,2.4-0.1c0.7-0.2,1.1-0.7,1.5-1.3
			c0.4-0.7,0.6-1.9,0.8-2.9c0.2-1,0.3-2.8,0.3-2.8S155.3,2.2,156.1,2.4z"/>
		<path d="M68,12H52.8v4h-1.2v-4h-6.1v4h-1.9v4h1.9v6.3l-3.1,2.2h3.1v5.1h6.1v-6.3l1.2-1v1.3H57v6h6.5v-6H68V12z M51.6,22.1v-2h1.2
			v1.2L51.6,22.1z M58.7,18.1h-1.5v-1.5h1.5V18.1z M63.4,18.1h-1.5v-1.5h1.5V18.1z M58.7,23.2h-1.5v-1.5h1.5V23.2z M63.4,23.2h-1.5
			v-1.5h1.5V23.2z"/>
		<polygon points="90.2,33.5 80.2,12.5 71.4,12.5 71.4,18.2 75.9,18.2 76.6,19.8 66.2,33.5 74.2,33.5 79.6,26.3 82.9,33.5 		"/>
		<path d="M110.1,27.2c0-1.3,0-13.8,0-13.8H110l0,0h-7l-3,3.3V12h-6.1v2.9h-4.2v5.5h4.2v2.3l-5.4,6.1h5.4v4.6h6.1v-8.7l3.8-4.4
			c0,0.3,0.1,0.8,0.1,1.3c0,1.2,0,5,0,7.5c0.1,2.5,1.1,4.4,1.1,4.4h6.2C110.3,32.7,110.1,28.6,110.1,27.2z"/>
		<g>
			<path d="M135.1,20.9v-3h-3.2l1-1.4h2.2v-3.3h-7v-1.3h-6.9v1.3h-7.5v3.3h2.2l1,1.4h-3.2V20v0.9v12.6h6.1V20.9H135.1z M122.4,16.5
				h3.9l-1,1.4h-1.8L122.4,16.5z"/>
			<polygon points="135.1,25.8 135.1,23.1 131.7,23.1 131.7,21.6 125.7,21.6 125.7,23.1 124.9,23.1 124.9,21.6 120.5,21.6 
				120.5,25.8 123.8,25.8 123.8,25.8 125.7,25.8 125.7,26.7 120.4,26.7 120.4,29.4 125.7,29.4 125.7,30.2 120.4,30.2 120.4,33.6 
				135.1,33.6 135.1,30.2 131.7,30.2 131.7,29.4 135.1,29.4 135.1,26.7 131.7,26.7 131.7,25.8 			"/>
		</g>
		<path d="M154.2,33.6h5.8l-2.3-4.2h1.7v-2.8h-7.2v-0.9h7.2v-2.8h-7.2v-0.9h7.2v-2.8H156l1-1.5h2.4v-2.8h-1.8l1.5-2.1h-3.7l-1.3,1.5
			v-2.3h-4.8v2.8h-0.9v-2.8h-4.8v2.3l-1.3-1.5h-3.7l1.5,2.1h-1.8v2.8h2.4l1,1.5h-3.4v2.8h7.3v0.9h-7.3v2.8h7.3v0.9h-7.3v2.8h1.7
			l-2.3,4.2h5.8l1.9-4.2h0.1v4.2h6.6v-4.2h0.1L154.2,33.6z M147.1,17.6h3.7l-1,1.5h-1.6L147.1,17.6z"/>
	</g>
</g>
</svg>
